# xmcd
#
# Track frame offsets:
#	150
#	9925
#	23641
#	39108
#	51254
#	64269
#	78744
#	93006
#	107348
#	109662
#	132229
#	146877
#	165155
#	174826
#	191526
#	212182
#
# Disc length: 2987 seconds
#
# Revision: 1
# Processed by: cddbd v1.5.2PL0 Copyright (c) Steve Scherf et al.
# Submitted via: audiograbber 1.83.01
#
DISCID=c30ba910
DTITLE=Trailer Trash - Nutcrackers
DYEAR=2009
DGENRE=Holiday
TTITLE0=We Need A Little Xmas
TTITLE1=My Mommy And Santa
TTITLE2=Mary's Boy Child
TTITLE3=I've Shopped Everywhere
TTITLE4=Back Door Santa
TTITLE5=Happy Holidays
TTITLE6=Feliz Navidad
TTITLE7=Hank Williams Xmas
TTITLE8=Sugar Plum Fairies
TTITLE9=Reindeer Love
TTITLE10=Mambo Santa Mambo
TTITLE11=Hava Nagila
TTITLE12=Santa's Gonna Come In A Stagecoach
TTITLE13=Heat Miser
TTITLE14=Do They Know It's Xmas?
TTITLE15=Sleigh Ride
EXTD=
EXTT0=
EXTT1=
EXTT2=
EXTT3=
EXTT4=
EXTT5=
EXTT6=
EXTT7=
EXTT8=
EXTT9=
EXTT10=
EXTT11=
EXTT12=
EXTT13=
EXTT14=
EXTT15=
PLAYORDER=
